<svg width="18" height="17" viewBox="0 0 18 17" fill="none" xmlns="http://www.w3.org/2000/svg">
<path d="M3.5 3.5H14.5V15.3529C14.5 15.6715 14.3843 15.9686 14.191 16.1809C13.9991 16.3917 13.7493 16.5 13.5 16.5H4.5C4.25068 16.5 4.00094 16.3917 3.80901 16.1809C3.61567 15.9686 3.5 15.6715 3.5 15.3529V3.5Z" stroke="#E01B1B" stroke-linecap="round" stroke-linejoin="round"/>
<path d="M7.2 0.5H10.8C10.9676 0.5 11.1405 0.573526 11.2769 0.725007C11.4148 0.878225 11.5 1.09631 11.5 1.33333V3.5H6.5V1.33333C6.5 1.09631 6.58522 0.878225 6.72312 0.725007C6.85945 0.573526 7.03237 0.5 7.2 0.5Z" stroke="#E01B1B" stroke-linecap="round" stroke-linejoin="round"/>
<line x1="0.5" y1="3.5" x2="17.5" y2="3.5" stroke="#E01B1B" stroke-linecap="round" stroke-linejoin="round"/>
</svg>
