<svg width="22" height="20" viewBox="0 0 22 20" fill="none" xmlns="http://www.w3.org/2000/svg">
<path d="M21.4754 3.81456C21.3517 3.64022 21.1528 3.53245 20.9366 3.52337L7.53795 2.95517C7.15352 2.93862 6.83226 3.23062 6.81583 3.60707C6.79949 3.98338 7.0958 4.30134 7.4784 4.31751L19.97 4.84728L17.5139 12.3865H6.5839L4.60924 1.8086C4.56583 1.57676 4.40404 1.38335 4.18092 1.29723L0.946759 0.0472184C0.590313 -0.0900757 0.188092 0.0821721 0.0481048 0.432422C-0.0916406 0.782862 0.0833917 1.17881 0.439644 1.31654L3.31533 2.42797L5.32484 13.1916C5.38541 13.5151 5.67205 13.7501 6.0066 13.7501H6.33994L5.57876 15.8302C5.51505 16.0045 5.5413 16.198 5.64972 16.3494C5.758 16.5008 5.93409 16.5909 6.12208 16.5909H6.65597C6.32515 16.9531 6.12208 17.43 6.12208 17.9545C6.12208 19.0825 7.05495 20 8.2012 20C9.34744 20 10.2803 19.0825 10.2803 17.9545C10.2803 17.4301 10.0772 16.9531 9.74647 16.5909H14.2795C13.9485 16.9531 13.7455 17.43 13.7455 17.9545C13.7455 19.0825 14.6781 20 15.8246 20C16.9711 20 17.9037 19.0825 17.9037 17.9545C17.9037 17.4301 17.7007 16.9531 17.37 16.5909H18.0192C18.3383 16.5909 18.5968 16.3365 18.5968 16.0227C18.5968 15.7088 18.3382 15.4545 18.0192 15.4545H6.94383L7.56748 13.75H18.0192C18.3206 13.75 18.5873 13.5584 18.6791 13.2763L21.5667 4.41248C21.6331 4.21018 21.599 3.98899 21.4754 3.81456ZM8.20124 18.8638C7.69162 18.8638 7.27716 18.4561 7.27716 17.9548C7.27716 17.4534 7.69162 17.0456 8.20124 17.0456C8.71087 17.0456 9.12528 17.4534 9.12528 17.9548C9.12528 18.4561 8.71087 18.8638 8.20124 18.8638ZM15.8246 18.8638C15.315 18.8638 14.9006 18.4561 14.9006 17.9548C14.9006 17.4534 15.315 17.0456 15.8246 17.0456C16.3342 17.0456 16.7486 17.4534 16.7486 17.9548C16.7486 18.4561 16.3342 18.8638 15.8246 18.8638Z" fill="white"/>
</svg>
