<svg width="14" height="14" viewBox="0 0 14 14" fill="none" xmlns="http://www.w3.org/2000/svg">
<path d="M13.7424 0.256009C13.4011 -0.0853364 12.8536 -0.0853364 12.5123 0.256009L6.99921 5.76906L1.48614 0.256009C1.1448 -0.0853364 0.597356 -0.0853364 0.25601 0.256009C-0.0853365 0.597355 -0.0853365 1.1448 0.25601 1.48614L5.76907 6.9992L0.25601 12.5122C-0.0853365 12.8536 -0.0853365 13.401 0.25601 13.7424C0.423462 13.9098 0.64888 14 0.867857 14C1.08683 14 1.31225 13.9163 1.4797 13.7424L6.99277 8.22933L12.5058 13.7424C12.6733 13.9098 12.8987 14 13.1177 14C13.3431 14 13.5621 13.9163 13.7295 13.7424C14.0709 13.401 14.0709 12.8536 13.7295 12.5122L8.22934 6.9992L13.7424 1.48614C14.0837 1.1448 14.0837 0.597355 13.7424 0.256009Z" fill="#949494"/>
</svg>
