<svg width="328" height="166" viewBox="0 0 328 166" fill="none" xmlns="http://www.w3.org/2000/svg">
<circle cx="326" cy="164" r="2" transform="rotate(-180 326 164)" fill="#303030"/>
<circle cx="326" cy="110" r="2" transform="rotate(-180 326 110)" fill="#303030"/>
<circle cx="326" cy="56" r="2" transform="rotate(-180 326 56)" fill="#303030"/>
<circle cx="326" cy="2" r="2" transform="rotate(-180 326 2)" fill="#303030"/>
<circle cx="272" cy="164" r="2" transform="rotate(-180 272 164)" fill="#303030"/>
<circle cx="272" cy="110" r="2" transform="rotate(-180 272 110)" fill="#303030"/>
<circle cx="272" cy="56" r="2" transform="rotate(-180 272 56)" fill="#303030"/>
<circle cx="272" cy="2" r="2" transform="rotate(-180 272 2)" fill="#303030"/>
<circle cx="218" cy="164" r="2" transform="rotate(-180 218 164)" fill="#303030"/>
<circle cx="218" cy="110" r="2" transform="rotate(-180 218 110)" fill="#303030"/>
<circle cx="218" cy="56" r="2" transform="rotate(-180 218 56)" fill="#303030"/>
<circle cx="218" cy="2" r="2" transform="rotate(-180 218 2)" fill="#303030"/>
<circle cx="164" cy="164" r="2" transform="rotate(-180 164 164)" fill="#303030"/>
<circle cx="164" cy="110" r="2" transform="rotate(-180 164 110)" fill="#303030"/>
<circle cx="164" cy="56" r="2" transform="rotate(-180 164 56)" fill="#303030"/>
<circle cx="164" cy="2" r="2" transform="rotate(-180 164 2)" fill="#303030"/>
<circle cx="110" cy="164" r="2" transform="rotate(-180 110 164)" fill="#303030"/>
<circle cx="110" cy="110" r="2" transform="rotate(-180 110 110)" fill="#303030"/>
<circle cx="110" cy="56" r="2" transform="rotate(-180 110 56)" fill="#303030"/>
<circle cx="110" cy="2" r="2" transform="rotate(-180 110 2)" fill="#303030"/>
<circle cx="56" cy="56" r="2" transform="rotate(-180 56 56)" fill="#303030"/>
<circle cx="56" cy="2" r="2" transform="rotate(-180 56 2)" fill="#303030"/>
<circle cx="2" cy="56" r="2" transform="rotate(-180 2 56)" fill="#303030"/>
<circle cx="2" cy="2" r="2" transform="rotate(-180 2 2)" fill="#303030"/>
</svg>
