<svg width="328" height="166" viewBox="0 0 328 166" fill="none" xmlns="http://www.w3.org/2000/svg">
<circle cx="2" cy="2" r="2" fill="#3B6A8D"/>
<circle cx="2" cy="56" r="2" fill="#3B6A8D"/>
<circle cx="2" cy="110" r="2" fill="#3B6A8D"/>
<circle cx="2" cy="164" r="2" fill="#3B6A8D"/>
<circle cx="56" cy="2" r="2" fill="#3B6A8D"/>
<circle cx="56" cy="56" r="2" fill="#3B6A8D"/>
<circle cx="56" cy="110" r="2" fill="#3B6A8D"/>
<circle cx="56" cy="164" r="2" fill="#3B6A8D"/>
<circle cx="110" cy="2" r="2" fill="#3B6A8D"/>
<circle cx="110" cy="56" r="2" fill="#3B6A8D"/>
<circle cx="110" cy="110" r="2" fill="#3B6A8D"/>
<circle cx="110" cy="164" r="2" fill="#3B6A8D"/>
<circle cx="164" cy="2" r="2" fill="#3B6A8D"/>
<circle cx="164" cy="56" r="2" fill="#3B6A8D"/>
<circle cx="164" cy="110" r="2" fill="#3B6A8D"/>
<circle cx="164" cy="164" r="2" fill="#3B6A8D"/>
<circle cx="218" cy="2" r="2" fill="#3B6A8D"/>
<circle cx="218" cy="56" r="2" fill="#3B6A8D"/>
<circle cx="218" cy="110" r="2" fill="#3B6A8D"/>
<circle cx="218" cy="164" r="2" fill="#3B6A8D"/>
<circle cx="272" cy="110" r="2" fill="#3B6A8D"/>
<circle cx="272" cy="164" r="2" fill="#3B6A8D"/>
<circle cx="326" cy="110" r="2" fill="#3B6A8D"/>
<circle cx="326" cy="164" r="2" fill="#3B6A8D"/>
</svg>
