<svg width="14" height="14" viewBox="0 0 14 14" fill="none" xmlns="http://www.w3.org/2000/svg">
<g clip-path="url(#clip0)">
<path d="M2.99174 2.43632H0.411761C0.184324 2.43632 0 2.25187 0 2.02455C0 1.79724 0.184324 1.61279 0.411761 1.61279H2.99174C3.21918 1.61279 3.4035 1.79724 3.4035 2.02455C3.4035 2.25187 3.21918 2.43632 2.99174 2.43632Z" fill="white"/>
<path d="M4.46615 3.91036C3.42614 3.91036 2.58008 3.0643 2.58008 2.02438C2.58008 0.984244 3.42614 0.138184 4.46615 0.138184C5.50616 0.138184 6.35222 0.984244 6.35222 2.02438C6.35222 3.06433 5.50616 3.91036 4.46615 3.91036ZM4.46615 0.961736C3.88025 0.961736 3.4036 1.43848 3.4036 2.02438C3.4036 2.61028 3.88025 3.08681 4.46615 3.08681C5.05206 3.08681 5.5287 2.61028 5.5287 2.02438C5.5287 1.43848 5.05206 0.961736 4.46615 0.961736Z" fill="white"/>
<path d="M13.5884 2.43632H7.43422C7.20678 2.43632 7.02246 2.25187 7.02246 2.02455C7.02246 1.79724 7.20678 1.61279 7.43422 1.61279H13.5884C13.8158 1.61279 14.0001 1.79724 14.0001 2.02455C14.0001 2.25187 13.8158 2.43632 13.5884 2.43632Z" fill="white"/>
<path d="M9.99447 8.88598C8.95443 8.88598 8.1084 8.03992 8.1084 7C8.1084 5.96008 8.95446 5.11401 9.99447 5.11401C11.0345 5.11401 11.8805 5.96008 11.8805 7C11.8805 8.03992 11.0345 8.88598 9.99447 8.88598ZM9.99447 5.93757C9.40857 5.93757 8.93192 6.41409 8.93192 7C8.93192 7.5859 9.40857 8.06243 9.99447 8.06243C10.5804 8.06243 11.057 7.5859 11.057 7C11.057 6.41409 10.5804 5.93757 9.99447 5.93757Z" fill="white"/>
<path d="M7.02671 7.4119H0.411761C0.184324 7.4119 0 7.22746 0 7.00014C0 6.77283 0.184324 6.58838 0.411761 6.58838H7.02671C7.25415 6.58838 7.43847 6.77283 7.43847 7.00014C7.43847 7.22746 7.25415 7.4119 7.02671 7.4119Z" fill="white"/>
<path d="M13.5882 7.4119H11.4689C11.2415 7.4119 11.0571 7.22746 11.0571 7.00014C11.0571 6.77283 11.2415 6.58838 11.4689 6.58838H13.5882C13.8156 6.58838 14 6.77283 14 7.00014C14 7.22746 13.8156 7.4119 13.5882 7.4119Z" fill="white"/>
<path d="M4.0057 13.862C2.96569 13.862 2.11963 13.016 2.11963 11.9758C2.11963 10.9359 2.96569 10.0898 4.0057 10.0898C5.04572 10.0898 5.89178 10.9359 5.89178 11.9758C5.89178 13.016 5.04572 13.862 4.0057 13.862ZM4.0057 10.9134C3.4198 10.9134 2.94315 11.3899 2.94315 11.9758C2.94315 12.5617 3.4198 13.0385 4.0057 13.0385C4.59161 13.0385 5.06826 12.5617 5.06826 11.9758C5.06826 11.3899 4.59161 10.9134 4.0057 10.9134Z" fill="white"/>
<path d="M13.5882 12.3875H6.97328C6.74585 12.3875 6.56152 12.203 6.56152 11.9757C6.56152 11.7484 6.74585 11.564 6.97328 11.564H13.5882C13.8157 11.564 14 11.7484 14 11.9757C14 12.203 13.8157 12.3875 13.5882 12.3875Z" fill="white"/>
<path d="M2.53107 12.3875H0.411761C0.184324 12.3875 0 12.2031 0 11.9757C0 11.7484 0.184324 11.564 0.411761 11.564H2.53107C2.75851 11.564 2.94283 11.7484 2.94283 11.9757C2.94283 12.2031 2.75851 12.3875 2.53107 12.3875Z" fill="white"/>
</g>
<defs>
<clipPath id="clip0">
<rect width="14" height="14" fill="white"/>
</clipPath>
</defs>
</svg>
