<svg width="20" height="20" viewBox="0 0 20 20" fill="none" xmlns="http://www.w3.org/2000/svg">
<g clip-path="url(#clip0)">
<rect x="4.26123" y="4.26099" width="11.4783" height="11.4783" fill="#101010"/>
<path d="M11.8311 10.0002C11.8311 11.0113 11.0114 11.831 10.0003 11.831C8.98911 11.831 8.16943 11.0113 8.16943 10.0002C8.16943 8.98899 8.98911 8.16931 10.0003 8.16931C11.0114 8.16931 11.8311 8.98899 11.8311 10.0002Z" fill="#CECECE"/>
<path d="M14.2817 6.76071C14.1937 6.52222 14.0533 6.30636 13.8709 6.12917C13.6937 5.94673 13.478 5.80632 13.2393 5.71831C13.0458 5.64315 12.7551 5.55368 12.2195 5.5293C11.6403 5.50288 11.4666 5.49719 10 5.49719C8.53334 5.49719 8.35966 5.50274 7.78051 5.52916C7.24501 5.55368 6.95413 5.64315 6.76074 5.71831C6.5221 5.80632 6.30624 5.94673 6.1292 6.12917C5.94675 6.30636 5.80635 6.52208 5.71819 6.76071C5.64302 6.95425 5.55355 7.24513 5.52918 7.78064C5.50276 8.35978 5.49707 8.53346 5.49707 10.0002C5.49707 11.4667 5.50276 11.6404 5.52918 12.2197C5.55355 12.7552 5.64302 13.0459 5.71819 13.2394C5.80635 13.4781 5.94661 13.6938 6.12905 13.871C6.30624 14.0534 6.52196 14.1938 6.76059 14.2818C6.95413 14.3572 7.24501 14.4466 7.78051 14.471C8.35966 14.4974 8.5332 14.503 9.99989 14.503C11.4667 14.503 11.6404 14.4974 12.2194 14.471C12.7549 14.4466 13.0458 14.3572 13.2393 14.2818C13.7183 14.0971 14.0969 13.7185 14.2817 13.2394C14.3569 13.0459 14.4464 12.7552 14.4709 12.2197C14.4973 11.6404 14.5028 11.4667 14.5028 10.0002C14.5028 8.53346 14.4973 8.35978 14.4709 7.78064C14.4465 7.24513 14.357 6.95425 14.2817 6.76071ZM10 12.8204C8.44227 12.8204 7.17948 11.5578 7.17948 10C7.17948 8.44224 8.44227 7.1796 10 7.1796C11.5576 7.1796 12.8204 8.44224 12.8204 10C12.8204 11.5578 11.5576 12.8204 10 12.8204ZM12.9319 7.72722C12.5679 7.72722 12.2728 7.4321 12.2728 7.06809C12.2728 6.70408 12.5679 6.40896 12.9319 6.40896C13.296 6.40896 13.5911 6.70408 13.5911 7.06809C13.5909 7.4321 13.296 7.72722 12.9319 7.72722Z" fill="#CECECE"/>
<path d="M10.0003 0.434937C4.71836 0.434937 0.435059 4.71824 0.435059 10.0002C0.435059 15.2821 4.71836 19.5654 10.0003 19.5654C15.2822 19.5654 19.5655 15.2821 19.5655 10.0002C19.5655 4.71824 15.2822 0.434937 10.0003 0.434937ZM15.4597 12.2646C15.4331 12.8493 15.3401 13.2485 15.2044 13.5979C14.9191 14.3357 14.3358 14.9189 13.598 15.2043C13.2488 15.34 12.8494 15.4328 12.2649 15.4595C11.6792 15.4863 11.4921 15.4927 10.0004 15.4927C8.50863 15.4927 8.32166 15.4863 7.73581 15.4595C7.15126 15.4328 6.75193 15.34 6.40266 15.2043C6.03603 15.0663 5.70413 14.8502 5.42974 14.5707C5.15038 14.2964 4.93423 13.9644 4.7963 13.5979C4.66056 13.2486 4.56759 12.8493 4.54103 12.2648C4.51402 11.6789 4.50775 11.4918 4.50775 10.0002C4.50775 8.50851 4.51402 8.32139 4.54088 7.73568C4.56744 7.15099 4.66027 6.75181 4.79601 6.4024C4.93393 6.03591 5.15024 5.70386 5.42974 5.42962C5.70398 5.15011 6.03603 4.93396 6.40252 4.79603C6.75193 4.66029 7.15111 4.56747 7.73581 4.54076C8.32152 4.51405 8.50863 4.50763 10.0003 4.50763C11.4919 4.50763 11.679 4.51405 12.2647 4.5409C12.8494 4.56747 13.2486 4.66029 13.598 4.79589C13.9645 4.93381 14.2966 5.15011 14.571 5.42962C14.8503 5.70401 15.0666 6.03591 15.2044 6.4024C15.3403 6.75181 15.4331 7.15099 15.4598 7.73568C15.4865 8.32139 15.4928 8.50851 15.4928 10.0002C15.4928 11.4918 15.4865 11.6789 15.4597 12.2646Z" fill="#CECECE"/>
</g>
<defs>
<clipPath id="clip0">
<rect width="19.1304" height="19.1304" fill="white" transform="translate(0.435059 0.434937)"/>
</clipPath>
</defs>
</svg>
