<svg width="21" height="20" viewBox="0 0 21 20" fill="none" xmlns="http://www.w3.org/2000/svg">
<path d="M10.4545 1.80184C13.246 1.80184 13.5766 1.812 14.679 1.86011C15.6983 1.90461 16.2519 2.06752 16.6203 2.20443C17.1083 2.38583 17.4566 2.60257 17.8224 2.95248C18.1882 3.30239 18.4148 3.63555 18.6044 4.10229C18.7476 4.4547 18.9179 4.98419 18.9644 5.95914C19.0147 7.01364 19.0253 7.32989 19.0253 10C19.0253 12.6701 19.0147 12.9864 18.9644 14.0409C18.9179 15.0158 18.7476 15.5453 18.6044 15.8978C18.4148 16.3645 18.1882 16.6976 17.8224 17.0476C17.4566 17.3975 17.1083 17.6142 16.6203 17.7956C16.2519 17.9325 15.6983 18.0954 14.679 18.1399C13.5768 18.188 13.2462 18.1982 10.4545 18.1982C7.66286 18.1982 7.33224 18.188 6.23001 18.1399C5.2107 18.0954 4.65714 17.9325 4.28875 17.7956C3.80076 17.6142 3.45246 17.3975 3.08664 17.0476C2.72082 16.6976 2.49424 16.3645 2.30463 15.8978C2.16145 15.5453 1.99114 15.0158 1.94462 14.0409C1.89432 12.9864 1.8837 12.6701 1.8837 10C1.8837 7.32989 1.89432 7.01364 1.94462 5.95918C1.99114 4.98419 2.16145 4.4547 2.30463 4.10229C2.49424 3.63555 2.72082 3.30239 3.08664 2.95248C3.45246 2.60257 3.80076 2.38583 4.28875 2.20443C4.65714 2.06752 5.2107 1.90461 6.22997 1.86011C7.3324 1.812 7.66303 1.80184 10.4545 1.80184ZM10.4545 0C7.61522 0 7.25924 0.0115116 6.14415 0.0601777C5.03134 0.108764 4.27141 0.277786 3.60638 0.525007C2.9189 0.780564 2.33588 1.1225 1.75468 1.67843C1.17348 2.23436 0.816002 2.79203 0.548829 3.44962C0.290371 4.08573 0.113667 4.81263 0.0628716 5.87705C0.0119933 6.94362 0 7.28416 0 10C0 12.7159 0.0119933 13.0564 0.0628716 14.123C0.113667 15.1874 0.290371 15.9143 0.548829 16.5504C0.816002 17.208 1.17348 17.7657 1.75468 18.3216C2.33588 18.8775 2.9189 19.2195 3.60638 19.475C4.27141 19.7223 5.03134 19.8913 6.14415 19.9399C7.25924 19.9885 7.61522 20 10.4545 20C13.2938 20 13.6499 19.9885 14.7649 19.9399C15.8777 19.8913 16.6376 19.7223 17.3027 19.475C17.9901 19.2195 18.5732 18.8775 19.1544 18.3216C19.7356 17.7657 20.093 17.208 20.3602 16.5504C20.6187 15.9143 20.7954 15.1874 20.8462 14.123C20.8971 13.0564 20.9091 12.7159 20.9091 10C20.9091 7.28416 20.8971 6.94362 20.8462 5.87705C20.7954 4.81263 20.6187 4.08573 20.3602 3.44962C20.093 2.79203 19.7356 2.23436 19.1544 1.67843C18.5732 1.1225 17.9901 0.780564 17.3027 0.525007C16.6376 0.277786 15.8777 0.108764 14.7649 0.0601777C13.6499 0.0115116 13.2938 0 10.4545 0ZM10.4545 4.86487C7.48956 4.86487 5.08596 7.16397 5.08596 10C5.08596 12.8361 7.48956 15.1352 10.4545 15.1352C13.4195 15.1352 15.8231 12.8361 15.8231 10C15.8231 7.16397 13.4195 4.86487 10.4545 4.86487ZM10.4545 13.3334C8.52991 13.3334 6.96966 11.841 6.96966 10C6.96966 8.15908 8.52991 6.66667 10.4545 6.66667C12.3791 6.66667 13.9394 8.15908 13.9394 10C13.9394 11.841 12.3791 13.3334 10.4545 13.3334ZM17.2897 4.66199C17.2897 5.32474 16.7281 5.86201 16.0352 5.86201C15.3423 5.86201 14.7806 5.32474 14.7806 4.66199C14.7806 3.99924 15.3423 3.462 16.0352 3.462C16.7281 3.462 17.2897 3.99924 17.2897 4.66199Z" fill="white"/>
</svg>
