<svg width="52" height="60" viewBox="0 0 52 60" fill="none" xmlns="http://www.w3.org/2000/svg">
<path d="M0.634384 60.9305C1.0414 56.8864 4.51996 55.1815 4.55932 55.1619C23.7613 45.5183 36.369 30.9182 42.4282 23.9014C43.9124 22.1827 46.9307 19.0584 47.2351 18.7723L54.1754 11.5442C54.5959 11.1063 55.255 10.9973 55.7941 11.277C59.3031 13.0978 60.5024 16.3217 60.8949 17.9351C65.0644 18.957 71.5193 19.8124 71.9833 19.8788C73.0507 20.031 74.0637 19.9043 75.08 19.4913C79.7336 17.6001 82.5499 10.4584 83.1375 8.83523C82.1294 3.60455 84.9224 1.61261 86.7087 0.886685C88.0765 0.330819 89.3092 0.322158 89.4453 0.323037C89.8196 0.325251 90.1767 0.480822 90.4336 0.753428C98.975 9.82223 104.316 17.696 106.31 24.1561C107.417 27.7403 107.178 29.9993 106.889 31.1198L110.842 37.312C110.963 37.5029 111.036 37.7212 111.053 37.947C111.094 38.4925 111.121 43.4137 99.7316 48.0424L42.136 71.4489C41.6538 71.6449 21.2799 77.7527 8.64837 73.8759C8.42301 73.8066 8.21916 73.6804 8.05676 73.5093C8.05676 73.5093 3.35555 68.5533 3.34722 68.5437C1.16591 65.9846 0.382197 63.4392 0.634384 60.9305ZM16.8628 51.1234C13.9673 53.0704 10.8715 54.9452 7.57653 56.6864C9.62806 56.6176 12.5648 56.281 16.2951 55.5557C22.3511 54.3784 23.2947 54.4083 28.9179 55.9559C32.5062 56.9432 45.6502 51.3662 56.1847 43.4985L40.6994 39.9609C39.4517 41.2752 36.2029 44.468 32.3546 47.3329C27.0521 51.2796 20.6641 53.3053 16.8628 51.1234ZM64.7125 39.811C59.903 44.5926 52.5174 49.7702 44.9562 53.6615C43.5436 54.3887 41.3338 55.4716 38.9124 56.4556C37.4629 57.0447 35.9379 57.5973 34.4625 58.018L43.353 61.2005C49.11 58.8065 56.0978 55.2154 64.1456 50.5117C70.6476 46.7111 76.3317 43.8467 81.4912 41.4921C81.9289 38.5704 82.4597 35.8503 83.0493 33.3342C80.1164 32.7855 72.3058 32.2631 64.7125 39.811ZM63.975 36.7433L49.3166 33.8733C49.2989 33.8698 49.2963 33.8693 49.2793 33.8653C49.1915 33.8463 47.1009 33.429 45.2437 35.3135C44.484 36.0844 43.6464 36.9351 42.9318 37.6613L58.9564 41.3218C60.3095 40.2022 61.5952 39.0478 62.7811 37.8683C63.179 37.473 63.5773 37.0998 63.975 36.7433ZM47.5463 22.2706C49.3079 22.4846 49.4591 22.5225 49.5339 22.5415C50.2669 22.7279 50.71 23.4733 50.5241 24.2062C50.4127 24.645 50.1006 24.98 49.7113 25.1382C49.4636 25.2388 49.1845 25.268 48.9056 25.2072C48.6327 25.1602 46.9808 24.9593 45.3047 24.7632C45.0478 25.0594 43.5175 26.8306 42.9696 27.4593C43.6938 27.6114 44.3551 27.7522 44.5514 27.8002C45.2862 27.98 45.7361 28.7211 45.5563 29.4559C45.4479 29.9 45.1339 30.2399 44.7406 30.3998C44.483 30.5044 44.1912 30.532 43.9007 30.4611C43.6411 30.3978 42.1537 30.0862 40.8828 29.8224C40.1591 30.6298 39.389 31.4762 38.5656 32.359L39.7701 32.8432C40.472 33.1253 40.8119 33.9233 40.5299 34.6248C40.3857 34.9838 40.1066 35.2478 39.7746 35.3827C39.4569 35.5118 39.091 35.5224 38.748 35.3847L36.5342 34.4947C35.8043 35.2481 35.0401 36.0197 34.244 36.8044L35.2467 37.5045C35.8669 37.9376 36.0184 38.7914 35.5856 39.4115C35.4284 39.6365 35.2162 39.7999 34.9797 39.896C34.5638 40.065 34.0735 40.0263 33.6784 39.7504L32.2375 38.744C31.366 39.5695 30.4589 40.4047 29.5181 41.2466L30.2812 41.9006C30.8558 42.3927 30.9225 43.2574 30.4303 43.8317C30.2833 44.0033 30.1029 44.1298 29.907 44.2094C29.4474 44.3962 28.902 44.326 28.4992 43.9808L27.4354 43.0693C26.5828 43.7987 25.7048 44.5295 24.8004 45.2596L25.0279 45.4672C25.5864 45.9771 25.6265 46.8434 25.1168 47.4021C24.9748 47.5577 24.8047 47.6732 24.6217 47.7476C24.1479 47.9401 23.5851 47.8581 23.1818 47.4907L22.6197 46.9778C21.629 47.7397 20.6084 48.4974 19.5609 49.2484C29.1151 50.2227 38.1453 38.5276 43.2936 33.3902C46.1469 30.5426 49.427 31.0972 49.8539 31.1866L66.8033 34.5049C74.0458 29.5019 80.8343 30.0849 83.7153 30.6668C84.2467 28.6623 84.8105 26.8063 85.3862 25.0937C83.8024 26.2072 82.1882 27.0755 80.5599 27.7369C73.3718 30.6576 65.9231 29.583 59.7178 28.0395C57.141 27.3984 55.4237 26.131 54.6138 24.2721C53.8075 22.4218 54.145 20.444 54.5714 19.1046C53.0302 18.7493 52.147 18.6795 51.4459 18.9857C50.0635 19.5892 47.6467 22.1686 47.5463 22.2706ZM55.3901 14.2341L53.5661 16.1339C54.683 16.2775 56.0076 16.6203 57.7181 17.0946C57.2864 16.1604 56.571 15.0809 55.3901 14.2341ZM71.5961 22.5908C70.2689 22.5293 57.3088 19.8242 57.2218 19.8001C56.9149 20.695 56.6261 22.0477 57.1279 23.188C57.5823 24.22 58.6759 24.9583 60.3781 25.3818C66.1187 26.8099 73.0017 27.8154 79.5705 25.1453C81.3354 24.4278 83.0785 23.445 84.7697 22.1338C82.9142 22.0316 80.719 21.5993 78.842 20.3856C78.0074 21.0603 77.0979 21.6286 76.1115 22.0295C74.6543 22.6214 73.1492 22.6627 71.5961 22.5908ZM88.8921 3.11403C88.5798 3.16113 88.1659 3.25155 87.7403 3.4245C85.8861 4.17806 85.282 5.88125 85.893 8.63171C85.9458 8.87014 85.9341 9.11854 85.8589 9.35106C85.7642 9.64264 84.1181 14.614 80.8661 18.3992C83.2299 19.6319 86.2328 19.4668 87.5776 19.3085C90.0649 13.4625 92.2674 10.4003 92.4394 10.1658C92.7281 9.77108 93.2052 9.56122 93.6908 9.61313L94.6475 9.71606C93.0109 7.6846 91.1068 5.48684 88.8921 3.11403ZM96.9653 12.7202L94.2201 12.4252C92.6433 14.8785 87.1413 24.3237 84.4811 40.1564C86.7567 39.1619 90.5508 37.4972 92.9405 36.6314C94.7752 35.9665 102.775 32.5355 104.191 30.6155C104.393 30.0645 105.888 24.8326 96.9653 12.7202ZM9.79169 71.3583C21.3387 74.6839 40.0064 69.2325 41.1642 68.8874L98.7004 45.505C106.594 42.2972 108.012 39.2787 108.264 38.3656L105.186 33.5438C103.146 35.3525 94.5317 38.9317 93.9662 39.1713C92.2947 39.8799 76.142 46.6722 65.5278 52.8769C57.055 57.829 49.7163 61.5766 43.7152 64.0154C38.4374 66.1603 31.8414 67.686 31.1451 67.8628C24.3575 69.5878 13.4264 69.5684 7.80165 69.2612L9.79169 71.3583ZM5.0795 66.3368C8.12677 66.5682 22.5537 67.2257 30.3716 65.2349C31.2186 65.0192 36.2432 63.851 39.4485 62.7122L27.1901 58.3245C22.8934 57.1686 22.0718 57.2234 16.8181 58.2446C13.2866 58.9315 7.35469 59.8759 4.24246 59.2001C3.83135 59.7826 3.47076 60.504 3.34206 61.3448C3.10579 62.8909 3.69016 64.5682 5.0795 66.3368Z" fill="#E63838"/>
</svg>
