<svg width="14" height="20" viewBox="0 0 14 20" fill="none" xmlns="http://www.w3.org/2000/svg">
<path d="M6.01539 14.0874C4.46492 13.9257 3.06695 13.5438 1.87006 12.6077C1.72155 12.4912 1.56822 12.379 1.4327 12.2489C0.908824 11.7457 0.856039 11.1695 1.27057 10.5757C1.6252 10.0675 2.2205 9.93156 2.83926 10.2233C2.95907 10.2799 3.07323 10.3505 3.18257 10.4263C5.41317 11.959 8.47745 12.0013 10.7164 10.4952C10.9383 10.3251 11.1754 10.1865 11.4502 10.1157C11.9845 9.97848 12.4829 10.1747 12.7696 10.6423C13.0972 11.1762 13.093 11.6974 12.6894 12.1119C12.0702 12.7474 11.3256 13.2072 10.4982 13.5281C9.71581 13.8314 8.85889 13.9841 8.01076 14.0855C8.13874 14.2248 8.19907 14.2933 8.27908 14.3737C9.43073 15.5308 10.5874 16.6831 11.7353 17.8437C12.1263 18.2392 12.208 18.7295 11.9927 19.1895C11.7573 19.6922 11.2302 20.023 10.7135 19.9876C10.3861 19.965 10.1308 19.802 9.90391 19.5735C9.03484 18.699 8.14943 17.8406 7.29795 16.9495C7.05015 16.6904 6.93096 16.7394 6.71228 16.9644C5.83797 17.8644 4.94942 18.7507 4.05563 19.6319C3.65429 20.0276 3.17671 20.0988 2.71128 19.8728C2.21652 19.633 1.90169 19.1279 1.92599 18.6204C1.94275 18.2771 2.11158 18.0148 2.34722 17.7796C3.48693 16.6416 4.62349 15.5006 5.76047 14.3607C5.83567 14.2849 5.90584 14.2045 6.01539 14.0874Z" fill="white"/>
<path d="M6.95945 10.1233C4.19346 10.1139 1.92536 7.82084 1.94149 5.05045C1.95741 2.24947 4.22697 -0.00773033 7.0202 1.98985e-05C9.81908 0.00756066 12.0656 2.29723 12.0516 5.12732C12.0373 7.89206 9.75351 10.1329 6.95945 10.1233ZM9.47325 5.05715C9.46843 3.68159 8.37293 2.5865 7.00009 2.58525C5.61573 2.58378 4.51038 3.69877 4.52106 5.08689C4.53133 6.45722 5.63626 7.54456 7.01287 7.53953C8.38528 7.53471 9.47786 6.4325 9.47325 5.05715Z" fill="white"/>
</svg>
