<svg width="10" height="10" viewBox="0 0 10 10" fill="none" xmlns="http://www.w3.org/2000/svg">
<path d="M5 0C2.24305 0 0 2.24305 0 5C0 7.75695 2.24305 10 5 10C7.75695 10 10 7.75695 10 5C10 2.24305 7.75695 0 5 0ZM5 9.375C2.58758 9.375 0.625003 7.41242 0.625003 5C0.625003 2.58758 2.58758 0.625003 5 0.625003C7.41242 0.625003 9.375 2.58758 9.375 5C9.375 7.41242 7.41242 9.375 5 9.375Z" fill="#8A8A8A"/>
<path d="M5.3125 1.875H4.6875V5.12939L6.65405 7.09594L7.09594 6.65404L5.3125 4.8706V1.875Z" fill="#8A8A8A"/>
</svg>
