<svg width="21" height="12" viewBox="0 0 21 12" fill="none" xmlns="http://www.w3.org/2000/svg">
<path d="M20.3881 10.7032C20.3328 10.6086 19.9908 9.84878 18.3449 8.28709C16.6219 6.65178 16.8534 6.91732 18.9287 4.0897C20.1926 2.36763 20.6979 1.31598 20.5398 0.866405C20.3894 0.437859 19.4597 0.550911 19.4597 0.550911L16.3686 0.569315C16.3686 0.569315 16.1398 0.537766 15.9687 0.641616C15.8029 0.744151 15.6962 0.980772 15.6962 0.980772C15.6962 0.980772 15.2063 2.31373 14.5531 3.44688C13.176 5.83806 12.6244 5.96426 12.3993 5.81572C11.876 5.46999 12.0072 4.42491 12.0072 3.6835C12.0072 1.36594 12.3505 0.399737 11.3373 0.149971C11.0004 0.0671538 10.7535 0.0119424 9.8933 0.00274048C8.79007 -0.00909055 7.85529 0.00668415 7.32682 0.27091C6.97451 0.447061 6.70321 0.840114 6.86908 0.862462C7.07352 0.890068 7.53641 0.989974 7.782 1.33176C8.0996 1.77214 8.08802 2.76331 8.08802 2.76331C8.08802 2.76331 8.27061 5.49102 7.66242 5.83018C7.24453 6.06285 6.67235 5.5883 5.4444 3.41796C4.81564 2.30716 4.33989 1.07805 4.33989 1.07805C4.33989 1.07805 4.2486 0.849316 4.0853 0.727062C3.88729 0.578517 3.60955 0.531193 3.60955 0.531193L0.670193 0.549597C0.670193 0.549597 0.229161 0.562743 0.0671491 0.758612C-0.0768615 0.933448 0.0555768 1.29364 0.0555768 1.29364C0.0555768 1.29364 2.35717 6.79769 4.96222 9.57272C7.35254 12.1164 10.0656 11.9494 10.0656 11.9494H11.2948C11.2948 11.9494 11.6664 11.9074 11.8554 11.6984C12.0303 11.5064 12.0239 11.1463 12.0239 11.1463C12.0239 11.1463 11.9995 9.45967 12.7658 9.21122C13.5206 8.96671 14.4901 10.8413 15.5174 11.563C16.2941 12.1085 16.8842 11.9889 16.8842 11.9889L19.632 11.9494C19.632 11.9494 21.0695 11.8587 20.3881 10.7032Z" fill="white"/>
</svg>
