<svg width="12" height="8" viewBox="0 0 12 8" fill="none" xmlns="http://www.w3.org/2000/svg">
<path d="M11.1672 6.35287C11.1389 6.30552 10.964 5.92539 10.1222 5.1441C9.24094 4.32597 9.35932 4.45882 10.4208 3.0442C11.0673 2.18267 11.3257 1.65654 11.2448 1.43162C11.1679 1.21722 10.6924 1.27378 10.6924 1.27378L9.11138 1.28299C9.11138 1.28299 8.99432 1.26721 8.90685 1.31916C8.82201 1.37046 8.76743 1.48884 8.76743 1.48884C8.76743 1.48884 8.51686 2.1557 8.18277 2.7226C7.47842 3.91888 7.19628 3.98202 7.08119 3.9077C6.81353 3.73474 6.88061 3.2119 6.88061 2.84098C6.88061 1.68153 7.0562 1.19815 6.53797 1.0732C6.36566 1.03177 6.23939 1.00414 5.79942 0.99954C5.23515 0.993621 4.75703 1.00151 4.48674 1.1337C4.30654 1.22183 4.16777 1.41847 4.25261 1.42965C4.35718 1.44346 4.59393 1.49344 4.71955 1.66443C4.88199 1.88475 4.87607 2.38062 4.87607 2.38062C4.87607 2.38062 4.96946 3.74526 4.65838 3.91494C4.44465 4.03134 4.15199 3.79393 3.52393 2.70813C3.20233 2.15241 2.959 1.5375 2.959 1.5375C2.959 1.5375 2.9123 1.42307 2.82878 1.36191C2.7275 1.28759 2.58545 1.26392 2.58545 1.26392L1.08204 1.27313C1.08204 1.27313 0.856468 1.2797 0.773603 1.37769C0.699945 1.46516 0.767684 1.64536 0.767684 1.64536C0.767684 1.64536 1.94489 4.39897 3.2773 5.78729C4.49989 7.05985 5.88755 6.97633 5.88755 6.97633H6.51627C6.51627 6.97633 6.70633 6.95529 6.803 6.85072C6.89245 6.7547 6.88916 6.5745 6.88916 6.5745C6.88916 6.5745 6.87666 5.73073 7.26863 5.60643C7.65467 5.48411 8.15054 6.42193 8.67601 6.78298C9.07324 7.05591 9.3751 6.99606 9.3751 6.99606L10.7805 6.97633C10.7805 6.97633 11.5158 6.93095 11.1672 6.35287Z" fill="#101010"/>
</svg>
